<?xml version="1.0" encoding="UTF-8" standalone="no"?>
<!-- Created with Inkscape (http://www.inkscape.org/) -->

<svg
   width="1920mm"
   height="1080mm"
   viewBox="0 0 1920 1080"
   version="1.1"
   id="svg18617"
   inkscape:export-filename="bitmap.svg"
   inkscape:export-xdpi="96"
   inkscape:export-ydpi="96"
   xmlns:inkscape="http://www.inkscape.org/namespaces/inkscape"
   xmlns:sodipodi="http://sodipodi.sourceforge.net/DTD/sodipodi-0.dtd"
   xmlns="http://www.w3.org/2000/svg"
   xmlns:svg="http://www.w3.org/2000/svg">
  <sodipodi:namedview
     id="namedview18619"
     pagecolor="#505050"
     bordercolor="#eeeeee"
     borderopacity="1"
     inkscape:showpageshadow="0"
     inkscape:pageopacity="0"
     inkscape:pagecheckerboard="0"
     inkscape:deskcolor="#505050"
     inkscape:document-units="mm"
     showgrid="false"
     showguides="false" />
  <defs
     id="defs18614" />
  <g
     inkscape:groupmode="layer"
     id="layer15"
     inkscape:label="Circle 8">
    <path
       id="path23004"
       style="fill:#333333;fill-opacity:1;stroke-width:233.809;stroke-linecap:round;stroke-linejoin:round;stroke-opacity:0.630542"
       d="M 2178.8289,112.2713 A 2057.3154,2057.3154 0 0 1 121.51363,2169.5866 2057.3154,2057.3154 0 0 1 -1935.8017,112.2713 2057.3154,2057.3154 0 0 1 121.51363,-1945.044 2057.3154,2057.3154 0 0 1 2178.8289,112.2713 Z" />
  </g>
  <g
     inkscape:groupmode="layer"
     id="layer14"
     inkscape:label="Circle 7">
    <path
       id="path23034"
       style="fill:#2e2e2e;fill-opacity:1;stroke-width:200.417;stroke-linecap:round;stroke-linejoin:round;stroke-opacity:0.630542"
       d="M 1885.01,112.2713 A 1763.4965,1763.4965 0 0 1 121.51363,1875.7677 1763.4965,1763.4965 0 0 1 -1641.9828,112.2713 1763.4965,1763.4965 0 0 1 121.51363,-1651.2251 1763.4965,1763.4965 0 0 1 1885.01,112.2713 Z" />
  </g>
  <g
     inkscape:groupmode="layer"
     id="layer13"
     inkscape:label="Circle 6">
    <path
       id="path23031"
       style="fill:#2b2b2b;fill-opacity:1;stroke-width:126.14;stroke-linecap:round;stroke-linejoin:round;stroke-opacity:0.630542"
       d="M 1231.4365,112.2713 A 1109.923,1109.923 0 0 1 121.51362,1222.1942 1109.923,1109.923 0 0 1 -988.40929,112.2713 1109.923,1109.923 0 0 1 121.51362,-997.65161 1109.923,1109.923 0 0 1 1231.4365,112.2713 Z" />
  </g>
  <g
     inkscape:groupmode="layer"
     id="layer12"
     inkscape:label="Circle 5">
    <path
       id="path23028"
       style="fill:#272727;fill-opacity:1;stroke-width:70.9248;stroke-linecap:round;stroke-linejoin:round;stroke-opacity:0.630542"
       d="M 745.59427,112.2713 A 624.08069,624.08069 0 0 1 121.51362,736.35195 624.08069,624.08069 0 0 1 -502.56703,112.2713 624.08069,624.08069 0 0 1 121.51362,-511.80935 624.08069,624.08069 0 0 1 745.59427,112.2713 Z" />
  </g>
  <g
     inkscape:groupmode="layer"
     id="layer11"
     inkscape:label="Circle 4">
    <path
       id="path23025"
       style="fill:#232323;fill-opacity:1;stroke-width:42.5288;stroke-linecap:round;stroke-linejoin:round;stroke-opacity:0.630542"
       d="M 495.73254,112.2713 A 374.21894,374.21894 0 0 1 121.51362,486.49022 374.21894,374.21894 0 0 1 -252.7053,112.2713 374.21894,374.21894 0 0 1 121.51362,-261.94762 374.21894,374.21894 0 0 1 495.73254,112.2713 Z" />
  </g>
  <g
     inkscape:groupmode="layer"
     id="layer10"
     inkscape:label="Circle 3">
    <path
       id="path23022"
       style="fill:#1c1c1c;fill-opacity:1;stroke-width:26.6218;stroke-linecap:round;stroke-linejoin:round;stroke-opacity:0.630542"
       d="M 355.7637,112.2713 A 234.25009,234.25009 0 0 1 121.51362,346.52138 234.25009,234.25009 0 0 1 -112.73646,112.2713 234.25009,234.25009 0 0 1 121.51362,-121.97878 234.25009,234.25009 0 0 1 355.7637,112.2713 Z" />
  </g>
  <g
     inkscape:groupmode="layer"
     id="layer9"
     inkscape:label="Circle 2">
    <path
       id="path23013"
       style="fill:#141414;fill-opacity:1;stroke-width:17.2879;stroke-linecap:round;stroke-linejoin:round;stroke-opacity:0.630542"
       d="M 273.63322,112.2713 A 152.11961,152.11961 0 0 1 121.51362,264.3909 152.11961,152.11961 0 0 1 -30.605987,112.2713 152.11961,152.11961 0 0 1 121.51362,-39.848303 152.11961,152.11961 0 0 1 273.63322,112.2713 Z" />
  </g>
  <g
     inkscape:groupmode="layer"
     id="layer8"
     inkscape:label="First Circle">
    <path
       id="path23009"
       style="stroke-width:10.5833;stroke-linecap:round;stroke-linejoin:round;stroke-opacity:0.630542"
       d="M 214.63809,112.2713 A 93.124474,93.124474 0 0 1 121.51362,205.39577 93.124474,93.124474 0 0 1 28.389145,112.2713 93.124474,93.124474 0 0 1 121.51362,19.146828 93.124474,93.124474 0 0 1 214.63809,112.2713 Z" />
  </g>
  <g
     inkscape:label="Sharp"
     inkscape:groupmode="layer"
     id="layer1">
    <g
       id="g22950"
       inkscape:label="g22950"
       transform="matrix(0.2175854,0,0,0.2175854,4.4635884,29.449301)">
      <path
         id="path22936"
         style="fill:none;fill-opacity:1;stroke:#30abcb;stroke-width:10.5833;stroke-linecap:round;stroke-linejoin:round;stroke-dasharray:none;stroke-opacity:0.206897"
         transform="translate(-42.800389,28.919183)"
         d="m 580.40632,64.39666 249.00315,143.3649 M 580.75022,174.62244 580.40632,64.39666 331.74709,208.35724 m 249.00313,-33.7348 248.65925,33.13912 0.34391,287.32551 -79.01872,-26.95571 78.67481,-260.3698 m 0.34391,287.32551 -79.01872,-26.95571 -169.64051,170.9163 -170.32835,-170.91629 -78.67478,27.55138 249.00313,143.36491 z m -249.00316,-320.46463 -249.00313,33.7348 79.01871,259.77413 -78.67478,27.55138 -0.34393,-287.32551 m 249.00314,-33.7348 169.98444,293.50892 H 410.76581 Z m -26.75218,188.04375 h 2.85611 q 3.61773,0 6.56904,-1.40017 3.04651,-1.40016 6.75944,-5.25059 3.71294,-3.85042 11.32922,-14.3516 9.13952,-12.48473 12.47165,-18.08536 4.18895,-6.65075 5.617,-11.20127 1.14244,-3.3837 1.14244,-6.53406 0,-4.66719 -2.18968,-6.76742 -2.18968,-2.21693 -5.99782,-2.68364 v -5.7173 h 41.50872 v 5.7173 q -3.04652,0.81676 -5.99782,2.91699 -2.95132,1.98356 -6.09303,5.60063 -3.04651,3.5004 -9.04433,11.66798 l -31.98836,44.10494 34.65406,61.7236 q 5.5218,9.80109 8.66352,13.7682 3.14171,3.85044 5.99782,5.71732 2.8561,1.75019 6.09302,2.33359 v 5.71731 h -41.98473 v -5.71731 q 3.52253,-0.35004 5.14099,-1.63352 1.61845,-1.28347 1.61845,-3.85044 0,-2.10022 -1.14244,-5.01722 -1.04724,-3.03367 -3.42732,-7.23414 l -22.1824,-40.48788 q -3.90335,-7.23415 -5.71221,-9.56774 -1.80887,-2.3336 -3.90335,-3.38371 -2.09447,-1.1668 -5.617,-1.1668 h -5.04578 v 48.88882 q 0,7.81754 0.38081,11.43461 0.47602,3.61707 1.42805,5.71731 1.04724,2.10024 2.95131,3.50039 1.99928,1.40016 6.37863,2.80032 v 5.71731 h -40.08065 v -5.71731 q 5.90261,-1.86688 7.90188,-4.08379 1.99928,-2.33359 2.5705,-6.53407 0.66642,-4.20046 0.66642,-12.83477 V 319.84472 q 0,-8.05091 -0.47601,-11.66798 -0.47602,-3.73376 -1.61846,-5.71731 -1.04724,-2.10024 -2.8561,-3.26704 -1.80888,-1.28347 -6.18823,-2.80031 v -5.7173 h 40.08065 v 5.7173 q -4.18895,1.28348 -6.09302,2.56695 -1.80887,1.28348 -2.95131,3.26704 -1.04723,1.86688 -1.61845,5.7173 -0.47602,3.85044 -0.47602,11.90135 z" />
      <path
         id="path22924"
         style="fill:none;fill-opacity:1;stroke:#30abcb;stroke-width:7.9375;stroke-linecap:round;stroke-linejoin:round;stroke-dasharray:none;stroke-opacity:0.371921"
         transform="translate(-42.800389,28.919183)"
         d="m 580.40632,64.39666 249.00315,143.3649 M 580.75022,174.62244 580.40632,64.39666 331.74709,208.35724 m 249.00313,-33.7348 248.65925,33.13912 0.34391,287.32551 -79.01872,-26.95571 78.67481,-260.3698 m 0.34391,287.32551 -79.01872,-26.95571 -169.64051,170.9163 -170.32835,-170.91629 -78.67478,27.55138 249.00313,143.36491 z m -249.00316,-320.46463 -249.00313,33.7348 79.01871,259.77413 -78.67478,27.55138 -0.34393,-287.32551 m 249.00314,-33.7348 169.98444,293.50892 H 410.76581 Z m -26.75218,188.04375 h 2.85611 q 3.61773,0 6.56904,-1.40017 3.04651,-1.40016 6.75944,-5.25059 3.71294,-3.85042 11.32922,-14.3516 9.13952,-12.48473 12.47165,-18.08536 4.18895,-6.65075 5.617,-11.20127 1.14244,-3.3837 1.14244,-6.53406 0,-4.66719 -2.18968,-6.76742 -2.18968,-2.21693 -5.99782,-2.68364 v -5.7173 h 41.50872 v 5.7173 q -3.04652,0.81676 -5.99782,2.91699 -2.95132,1.98356 -6.09303,5.60063 -3.04651,3.5004 -9.04433,11.66798 l -31.98836,44.10494 34.65406,61.7236 q 5.5218,9.80109 8.66352,13.7682 3.14171,3.85044 5.99782,5.71732 2.8561,1.75019 6.09302,2.33359 v 5.71731 h -41.98473 v -5.71731 q 3.52253,-0.35004 5.14099,-1.63352 1.61845,-1.28347 1.61845,-3.85044 0,-2.10022 -1.14244,-5.01722 -1.04724,-3.03367 -3.42732,-7.23414 l -22.1824,-40.48788 q -3.90335,-7.23415 -5.71221,-9.56774 -1.80887,-2.3336 -3.90335,-3.38371 -2.09447,-1.1668 -5.617,-1.1668 h -5.04578 v 48.88882 q 0,7.81754 0.38081,11.43461 0.47602,3.61707 1.42805,5.71731 1.04724,2.10024 2.95131,3.50039 1.99928,1.40016 6.37863,2.80032 v 5.71731 h -40.08065 v -5.71731 q 5.90261,-1.86688 7.90188,-4.08379 1.99928,-2.33359 2.5705,-6.53407 0.66642,-4.20046 0.66642,-12.83477 V 319.84472 q 0,-8.05091 -0.47601,-11.66798 -0.47602,-3.73376 -1.61846,-5.71731 -1.04724,-2.10024 -2.8561,-3.26704 -1.80888,-1.28347 -6.18823,-2.80031 v -5.7173 h 40.08065 v 5.7173 q -4.18895,1.28348 -6.09302,2.56695 -1.80887,1.28348 -2.95131,3.26704 -1.04723,1.86688 -1.61845,5.7173 -0.47602,3.85044 -0.47602,11.90135 z" />
      <path
         id="path22916"
         style="fill:none;fill-opacity:1;stroke:#30abcb;stroke-width:5.29167;stroke-linecap:round;stroke-linejoin:round;stroke-dasharray:none;stroke-opacity:0.630542"
         transform="translate(-42.800389,28.919183)"
         d="m 580.40632,64.39666 249.00315,143.3649 M 580.75022,174.62244 580.40632,64.39666 331.74709,208.35724 m 249.00313,-33.7348 248.65925,33.13912 0.34391,287.32551 -79.01872,-26.95571 78.67481,-260.3698 m 0.34391,287.32551 -79.01872,-26.95571 -169.64051,170.9163 -170.32835,-170.91629 -78.67478,27.55138 249.00313,143.36491 z m -249.00316,-320.46463 -249.00313,33.7348 79.01871,259.77413 -78.67478,27.55138 -0.34393,-287.32551 m 249.00314,-33.7348 169.98444,293.50892 H 410.76581 Z m -26.75218,188.04375 h 2.85611 q 3.61773,0 6.56904,-1.40017 3.04651,-1.40016 6.75944,-5.25059 3.71294,-3.85042 11.32922,-14.3516 9.13952,-12.48473 12.47165,-18.08536 4.18895,-6.65075 5.617,-11.20127 1.14244,-3.3837 1.14244,-6.53406 0,-4.66719 -2.18968,-6.76742 -2.18968,-2.21693 -5.99782,-2.68364 v -5.7173 h 41.50872 v 5.7173 q -3.04652,0.81676 -5.99782,2.91699 -2.95132,1.98356 -6.09303,5.60063 -3.04651,3.5004 -9.04433,11.66798 l -31.98836,44.10494 34.65406,61.7236 q 5.5218,9.80109 8.66352,13.7682 3.14171,3.85044 5.99782,5.71732 2.8561,1.75019 6.09302,2.33359 v 5.71731 h -41.98473 v -5.71731 q 3.52253,-0.35004 5.14099,-1.63352 1.61845,-1.28347 1.61845,-3.85044 0,-2.10022 -1.14244,-5.01722 -1.04724,-3.03367 -3.42732,-7.23414 l -22.1824,-40.48788 q -3.90335,-7.23415 -5.71221,-9.56774 -1.80887,-2.3336 -3.90335,-3.38371 -2.09447,-1.1668 -5.617,-1.1668 h -5.04578 v 48.88882 q 0,7.81754 0.38081,11.43461 0.47602,3.61707 1.42805,5.71731 1.04724,2.10024 2.95131,3.50039 1.99928,1.40016 6.37863,2.80032 v 5.71731 h -40.08065 v -5.71731 q 5.90261,-1.86688 7.90188,-4.08379 1.99928,-2.33359 2.5705,-6.53407 0.66642,-4.20046 0.66642,-12.83477 V 319.84472 q 0,-8.05091 -0.47601,-11.66798 -0.47602,-3.73376 -1.61846,-5.71731 -1.04724,-2.10024 -2.8561,-3.26704 -1.80888,-1.28347 -6.18823,-2.80031 v -5.7173 h 40.08065 v 5.7173 q -4.18895,1.28348 -6.09302,2.56695 -1.80887,1.28348 -2.95131,3.26704 -1.04723,1.86688 -1.61845,5.7173 -0.47602,3.85044 -0.47602,11.90135 z" />
      <path
         d="m 565.92679,353.71629 h 3.16188 q 4.00505,0 7.27233,-1.26476 3.37267,-1.26475 7.48311,-4.74282 4.11045,-3.47806 12.54213,-12.9637 10.11801,-11.27737 13.80687,-16.33638 4.63743,-6.00757 6.21837,-10.11802 1.26475,-3.05648 1.26475,-5.90217 0,-4.21584 -2.42411,-6.11297 -2.42411,-2.00253 -6.63995,-2.42411 v -5.1644 h 45.95266 v 5.1644 q -3.37268,0.73777 -6.63995,2.6349 -3.26728,1.79173 -6.74535,5.05901 -3.37267,3.16188 -10.01262,10.5396 l -35.41305,39.83968 38.36414,55.75449 q 6.11297,8.85326 9.59104,12.43672 3.47807,3.47807 6.63995,5.16441 3.16188,1.58094 6.74534,2.10792 v 5.1644 H 610.6147 v -5.1644 q 3.89965,-0.31619 5.69138,-1.47555 1.79173,-1.15935 1.79173,-3.47807 0,-1.89712 -1.26475,-4.53202 -1.15936,-2.7403 -3.79426,-6.53455 l -24.55726,-36.57242 q -4.32124,-6.53455 -6.32376,-8.64247 -2.00253,-2.10792 -4.32124,-3.05648 -2.31871,-1.05396 -6.21836,-1.05396 h -5.58599 v 44.16092 q 0,7.06153 0.42158,10.32881 0.52698,3.26727 1.58094,5.1644 1.15936,1.89713 3.26728,3.16188 2.21332,1.26475 7.06153,2.52951 v 5.1644 h -44.37171 v -5.1644 q 6.53455,-1.68634 8.74786,-3.68886 2.21332,-2.10792 2.8457,-5.90218 0.73777,-3.79425 0.73777,-11.59356 v -91.16753 q 0,-7.27233 -0.52698,-10.5396 -0.52698,-3.37268 -1.79173,-5.16441 -1.15936,-1.89713 -3.16188,-2.95109 -2.00253,-1.15935 -6.85074,-2.5295 v -5.1644 h 44.37171 v 5.1644 q -4.63742,1.15936 -6.74534,2.31871 -2.00253,1.15936 -3.26728,2.95109 -1.15935,1.68634 -1.79173,5.1644 -0.52698,3.47807 -0.52698,10.7504 z"
         id="path22892"
         style="font-size:215.851px;font-family:Cambria;-inkscape-font-specification:Cambria;fill:none;stroke:#30abcb;stroke-width:2.64583;stroke-linecap:round;stroke-linejoin:round;stroke-dasharray:none"
         transform="scale(0.90329292,1.1070606)" />
      <path
         id="path21988"
         style="fill:none;fill-opacity:1;stroke:#30abcb;stroke-width:2.64583;stroke-linecap:round;stroke-linejoin:round;stroke-dasharray:none;stroke-opacity:1"
         d="m 580.40632,64.39666 249.00315,143.3649 M 580.75022,174.62244 580.40632,64.39666 331.74709,208.35724 m 249.00313,-33.7348 248.65925,33.13912 0.34391,287.32551 -79.01872,-26.95571 78.67481,-260.3698 m 0.34391,287.32551 -79.01872,-26.95571 -169.64051,170.9163 -170.32835,-170.91629 -78.67478,27.55138 249.00313,143.36491 z m -249.00316,-320.46463 -249.00313,33.7348 79.01871,259.77413 -78.67478,27.55138 -0.34393,-287.32551 m 249.00314,-33.7348 169.98444,293.50892 H 410.76581 Z"
         transform="translate(-42.800389,28.919183)" />
    </g>
  </g>
</svg>
